<svg width="25" height="25" viewBox="0 0 25 25" fill="none" xmlns="http://www.w3.org/2000/svg">
<g clip-path="url(#clip0_61_2752)">
<path d="M22.0934 13.7245C21.8482 13.5355 21.567 13.3983 21.2671 13.3215C20.9671 13.2446 20.6547 13.2295 20.3488 13.2773C22.1094 11.4998 23 9.73259 23 8.00009C23 5.51853 21.0041 3.50009 18.5506 3.50009C17.8996 3.496 17.2556 3.63445 16.6638 3.90573C16.0721 4.17701 15.5468 4.57454 15.125 5.0704C14.7032 4.57454 14.1779 4.17701 13.5862 3.90573C12.9944 3.63445 12.3504 3.496 11.6994 3.50009C9.24594 3.50009 7.25 5.51853 7.25 8.00009C7.25 9.03134 7.55375 10.0335 8.19312 11.0938C7.66947 11.2265 7.19158 11.4987 6.81031 11.8813L4.68969 14.0001H2C1.60218 14.0001 1.22064 14.1581 0.93934 14.4394C0.658035 14.7207 0.5 15.1023 0.5 15.5001L0.5 19.2501C0.5 19.6479 0.658035 20.0294 0.93934 20.3107C1.22064 20.5921 1.60218 20.7501 2 20.7501H11.75C11.8113 20.7501 11.8724 20.7426 11.9319 20.7276L17.9319 19.2276C17.9701 19.2185 18.0075 19.2059 18.0434 19.1901L21.6875 17.6395L21.7288 17.6207C22.079 17.4457 22.3789 17.1844 22.6002 16.8615C22.8215 16.5385 22.957 16.1646 22.9939 15.7748C23.0307 15.385 22.9678 14.9923 22.8109 14.6336C22.654 14.2749 22.4084 13.962 22.0972 13.7245H22.0934ZM11.6994 5.00009C12.2803 4.99159 12.8505 5.15653 13.3371 5.47384C13.8238 5.79114 14.2047 6.24638 14.4313 6.78134C14.4878 6.9189 14.5839 7.03655 14.7074 7.11935C14.8309 7.20215 14.9763 7.24636 15.125 7.24636C15.2737 7.24636 15.4191 7.20215 15.5426 7.11935C15.6661 7.03655 15.7622 6.9189 15.8187 6.78134C16.0453 6.24638 16.4262 5.79114 16.9129 5.47384C17.3995 5.15653 17.9697 4.99159 18.5506 5.00009C20.1491 5.00009 21.5 6.37353 21.5 8.00009C21.5 9.82915 20.0197 11.8982 17.2194 13.9907L16.1797 14.2298C16.2709 13.8443 16.2738 13.4431 16.1879 13.0564C16.1021 12.6696 15.9298 12.3073 15.6841 11.9966C15.4383 11.6859 15.1254 11.4348 14.7688 11.2622C14.4122 11.0897 14.0212 11 13.625 11.0001H9.93875C9.12969 9.90884 8.75 8.94884 8.75 8.00009C8.75 6.37353 10.1009 5.00009 11.6994 5.00009ZM2 15.5001H4.25V19.2501H2V15.5001ZM21.0716 16.2698L17.5091 17.7866L11.6562 19.2501H5.75V15.0604L7.87156 12.9398C8.01035 12.7999 8.17555 12.689 8.35758 12.6135C8.5396 12.538 8.73482 12.4995 8.93188 12.5001H13.625C13.9234 12.5001 14.2095 12.6186 14.4205 12.8296C14.6315 13.0406 14.75 13.3267 14.75 13.6251C14.75 13.9235 14.6315 14.2096 14.4205 14.4206C14.2095 14.6316 13.9234 14.7501 13.625 14.7501H11C10.8011 14.7501 10.6103 14.8291 10.4697 14.9698C10.329 15.1104 10.25 15.3012 10.25 15.5001C10.25 15.699 10.329 15.8898 10.4697 16.0304C10.6103 16.1711 10.8011 16.2501 11 16.2501H14C14.0565 16.2499 14.1127 16.2436 14.1678 16.2313L20.4491 14.7866L20.4781 14.7791C20.6699 14.7259 20.8745 14.7455 21.0527 14.8341C21.2309 14.9227 21.37 15.074 21.4434 15.259C21.5167 15.444 21.5189 15.6496 21.4498 15.8362C21.3806 16.0228 21.2449 16.1772 21.0687 16.2698H21.0716Z" fill="white"/>
</g>
<defs>
<clipPath id="clip0_61_2752">
<rect width="24" height="24" fill="white" transform="translate(0.5 0.5)"/>
</clipPath>
</defs>
</svg>
